<?xml version="1.0" encoding="utf-8"?>
<!-- Generator: Adobe Illustrator 14.0.0, SVG Export Plug-In . SVG Version: 6.00 Build 43363)  -->
<!DOCTYPE svg PUBLIC "-//W3C//DTD SVG 1.1//EN" "http://www.w3.org/Graphics/SVG/1.1/DTD/svg11.dtd">
<svg version="1.1" id="图层_1" xmlns="http://www.w3.org/2000/svg" xmlns:xlink="http://www.w3.org/1999/xlink" x="0px" y="0px"
	 width="60px" height="14px" viewBox="0 0 60 14" enable-background="new 0 0 60 14" xml:space="preserve">
<g>
	<path fill="#FFFFFF" stroke="#FFFFFF" stroke-width="0.5" d="M0,12.766v-10.9h3.267c0.993,0,1.781,0.231,2.362,0.692
		s0.873,1.062,0.873,1.801c0,0.619-0.176,1.156-0.528,1.612C5.621,6.426,5.135,6.751,4.516,6.944v0.03
		C5.29,7.06,5.909,7.337,6.374,7.806C6.838,8.275,7.07,8.885,7.07,9.635c0,0.932-0.353,1.688-1.057,2.266
		c-0.705,0.576-1.593,0.865-2.667,0.865H0z M1.346,3.021v3.519h1.377c0.736,0,1.316-0.168,1.737-0.505S5.092,5.223,5.092,4.61
		c0-1.059-0.733-1.588-2.202-1.588H1.346z M1.346,7.688v3.923h1.825c0.79,0,1.402-0.178,1.837-0.533
		c0.435-0.354,0.653-0.84,0.653-1.459c0-1.287-0.924-1.931-2.771-1.931H1.346z"/>
	<path fill="#FFFFFF" stroke="#FFFFFF" stroke-width="0.5" d="M9.897,3.006c-0.235,0-0.436-0.076-0.601-0.228
		C9.131,2.626,9.048,2.434,9.048,2.2c0-0.233,0.083-0.427,0.248-0.582c0.166-0.154,0.366-0.231,0.601-0.231
		c0.24,0,0.444,0.077,0.612,0.231c0.168,0.155,0.252,0.349,0.252,0.582c0,0.223-0.083,0.413-0.252,0.57S10.137,3.006,9.897,3.006z
		 M10.537,12.766H9.224V4.982h1.313V12.766z"/>
	<path fill="#FFFFFF" stroke="#FFFFFF" stroke-width="0.5" d="M16.999,12.689c-0.31,0.162-0.718,0.244-1.225,0.244
		c-1.436,0-2.154-0.76-2.154-2.281V6.046H12.21V4.982h1.409v-1.9l1.313-0.403v2.303h2.066v1.064h-2.066v4.385
		c0,0.523,0.093,0.895,0.28,1.119c0.187,0.223,0.497,0.334,0.929,0.334c0.331,0,0.616-0.086,0.856-0.26V12.689z"/>
	<path fill="#FFFFFF" stroke="#FFFFFF" stroke-width="0.5" d="M26.743,12.311c-0.849,0.426-1.906,0.639-3.171,0.639
		c-1.633,0-2.941-0.5-3.923-1.498s-1.473-2.309-1.473-3.93c0-1.743,0.553-3.152,1.657-4.226c1.105-1.074,2.506-1.611,4.204-1.611
		c1.089,0,1.991,0.149,2.707,0.448v1.361c-0.822-0.436-1.729-0.654-2.723-0.654c-1.318,0-2.387,0.418-3.207,1.254
		c-0.819,0.836-1.229,1.953-1.229,3.352c0,1.329,0.383,2.385,1.149,3.174c0.766,0.787,1.771,1.182,3.015,1.182
		c1.153,0,2.151-0.244,2.995-0.73V12.311z"/>
	<path fill="#FFFFFF" stroke="#FFFFFF" stroke-width="0.5" d="M30.219,12.766h-1.314V1.243h1.314V12.766z"/>
	<path fill="#FFFFFF" stroke="#FFFFFF" stroke-width="0.5" d="M36.303,12.949c-1.211,0-2.18-0.363-2.902-1.092
		c-0.723-0.727-1.084-1.691-1.084-2.893c0-1.307,0.375-2.328,1.129-3.063c0.752-0.735,1.77-1.103,3.051-1.103
		c1.221,0,2.176,0.357,2.861,1.072c0.686,0.715,1.029,1.705,1.029,2.972c0,1.242-0.369,2.236-1.109,2.984
		C38.537,12.574,37.547,12.949,36.303,12.949z M36.398,5.849c-0.844,0-1.51,0.272-2.002,0.817C33.906,7.21,33.66,7.962,33.66,8.92
		c0,0.922,0.248,1.65,0.746,2.182c0.494,0.531,1.16,0.799,1.992,0.799c0.85,0,1.502-0.262,1.959-0.783
		c0.455-0.521,0.684-1.266,0.684-2.229c0-0.972-0.229-1.722-0.684-2.25C37.9,6.112,37.248,5.849,36.398,5.849z"/>
	<path fill="#FFFFFF" stroke="#FFFFFF" stroke-width="0.5" d="M49.113,12.766h-1.313v-1.23h-0.033
		c-0.543,0.941-1.387,1.414-2.529,1.414c-1.953,0-2.93-1.105-2.93-3.314V4.982h1.305v4.455c0,1.641,0.662,2.463,1.986,2.463
		c0.641,0,1.166-0.225,1.58-0.674c0.414-0.447,0.621-1.035,0.621-1.76V4.982h1.313V12.766z"/>
	<path fill="#FFFFFF" stroke="#FFFFFF" stroke-width="0.5" d="M58.762,12.766h-1.313v-1.322h-0.033
		c-0.607,1.004-1.549,1.506-2.818,1.506c-1.031,0-1.854-0.35-2.471-1.045c-0.615-0.697-0.924-1.646-0.924-2.848
		c0-1.287,0.342-2.318,1.025-3.094C52.912,5.188,53.822,4.8,54.957,4.8c1.127,0,1.947,0.421,2.459,1.262h0.033V1.243h1.313V12.766z
		 M57.449,9.246V8.1c0-0.629-0.221-1.161-0.658-1.597c-0.438-0.436-0.992-0.653-1.664-0.653c-0.801,0-1.432,0.278-1.891,0.836
		s-0.688,1.329-0.688,2.311c0,0.896,0.219,1.605,0.66,2.125c0.439,0.52,1.031,0.779,1.773,0.779c0.73,0,1.324-0.252,1.781-0.754
		S57.449,10.012,57.449,9.246z"/>
</g>
</svg>
